<?xml version="1.0" encoding="utf-8"?>
<!DOCTYPE svg PUBLIC "-//W3C//DTD SVG 20010904//EN" "http://www.w3.org/TR/2001/REC-SVG-20010904/DTD/svg10.dtd">
<svg version="1.0" xmlns="http://www.w3.org/2000/svg" width="1080px" height="1920px" viewBox="0 0 1080 1920" preserveAspectRatio="xMidYMid meet">
 <g fill="#5b5b5b">
  <path d="M0 960 l0 -960 540 0 540 0 0 960 0 960 -540 0 -540 0 0 -960z"/>
 </g>
 <g fill="#9d9d9d">
  <path d="M0 960 l0 -960 540 0 540 0 0 960 0 960 -540 0 -540 0 0 -960z m726 120.5 c0 -133.7 -0.3 -201.5 -1 -201.5 -0.7 0 -1 67.8 -1 201.5 0 133.7 0.3 201.5 1 201.5 0.7 0 1 -67.8 1 -201.5z m228 104 l0 -68.5 -106.5 0 -106.5 0 0 68.5 0 68.5 106.5 0 106.5 0 0 -68.5z m-240 -176 l0 -128.5 -264.5 0 -264.5 0 0 128.5 0 128.5 264.5 0 264.5 0 0 -128.5z m240 -147.5 c0 -2 -0.7 -2 -384.5 -2 -383.8 0 -384.5 0 -384.5 2 0 2 0.7 2 384.5 2 383.8 0 384.5 0 384.5 -2z"/>
  <path d="M410 1009.5 l0 -82.5 22.5 0 22.5 0 0 64.5 0 64.5 32 0 32 0 0 18 0 18 -54.5 0 -54.5 0 0 -82.5z"/>
  <path d="M580.5 1090.8 c-0.3 -0.7 -12.2 -37.3 -26.5 -81.3 -14.3 -44 -26.3 -80.6 -26.5 -81.3 -0.4 -1 4.7 -1.2 24.7 -1 l25.1 0.3 12.4 46 c6.8 25.3 13.6 52.3 15.2 60 1.6 7.7 3 12.9 3 11.5 0.4 -7.1 6.3 -32.1 17.3 -72.7 l12.3 -45.3 24.9 0 c23.2 0 24.8 0.1 24.4 1.8 -0.3 0.9 -12.4 38 -26.9 82.4 l-26.4 80.8 -26.3 0 c-20.1 0 -26.4 -0.3 -26.7 -1.2z"/>
 </g>
 <g fill="#adadad">
  <path d="M0 960 l0 -960 540 0 540 0 0 960 0 960 -540 0 -540 0 0 -960z m726 121 c0 -134 -0.3 -202 -1 -202 -0.7 0 -1 68 -1 202 0 134 0.3 202 1 202 0.7 0 1 -68 1 -202z m228 103.5 l0 -68.5 -106.5 0 -106.5 0 0 68.5 0 68.5 106.5 0 106.5 0 0 -68.5z m-240 -176 l0 -128.5 -264.5 0 -264.5 0 0 128.5 0 128.5 264.5 0 264.5 0 0 -128.5z m240 -148 l0 -2.5 -384.5 0 -384.5 0 0 2.5 0 2.5 384.5 0 384.5 0 0 -2.5z m-859 -133 c10.6 -1.4 12.9 -2 11.9 -2.9 -0.7 -0.6 -24.4 2.6 -25.3 3.5 -1.3 1.2 0.1 1.2 13.4 -0.6z m32.3 -28.1 c7.1 -0.4 12.7 -1.1 12.7 -1.6 0 -0.6 -1.4 -0.8 -3.2 -0.5 -1.8 0.3 -9.5 0.9 -17.1 1.3 -7.6 0.4 -14 1.1 -14.4 1.7 -0.4 0.6 1.1 0.8 4.3 0.4 2.7 -0.3 10.6 -0.9 17.7 -1.3z m231.5 -15.6 c18.8 -1.2 34.2 -2.4 34.2 -2.8 0 -0.4 -38.8 1.9 -71.5 4.3 -4.6 0.3 -4.7 0.3 -1 0.5 2.2 0.2 19.4 -0.7 38.3 -2z"/>
 </g>
 <g fill="#cecece">
  <path d="M1049.2 1816.8 c-16.5 -28.8 -90.6 -157.1 -164.6 -285.3 l-134.5 -233 -295.8 -0.5 -295.8 -0.5 -4 -2.2 c-5.3 -2.8 -9.9 -7.8 -12.4 -13.3 -1.9 -4.2 -2.1 -6.5 -2.1 -33.6 0 -30.1 -2.8 -80.6 -5.5 -98.4 -0.2 -1.4 -0.7 -5 -1 -8 -0.3 -3 -0.8 -6.6 -1 -8 -0.2 -1.4 -0.7 -5 -1 -8 -0.3 -3 -0.8 -6.6 -1 -8 -0.2 -1.4 -0.7 -5 -1 -8 -0.3 -3 -0.8 -6.6 -1 -8 -0.2 -1.4 -0.7 -5 -1 -8 -0.3 -3 -0.8 -6.6 -1 -8 -0.2 -1.4 -0.7 -5 -1 -8 -0.3 -3 -0.8 -6.6 -1 -8 -0.2 -1.4 -0.7 -5 -1 -8 -0.3 -3 -0.8 -6.6 -1 -8 -0.2 -1.4 -0.7 -5 -1 -8 -0.3 -3 -0.8 -6.6 -1 -8 -0.2 -1.4 -0.6 -4.7 -1 -7.5 -0.3 -2.7 -0.8 -6.6 -1 -8.5 -3.7 -26.8 -36.3 -291.5 -36 -292 0.2 -0.4 5.9 -1.3 12.5 -2 l12.1 -1.3 -0.6 -8.1 c-0.3 -4.5 -0.8 -10.2 -1 -12.7 l-0.5 -4.6 10.7 -0.7 c6 -0.4 13.8 -0.9 17.6 -1.3 l6.7 -0.6 0 -6.3 0 -6.4 96.7 0 c87.2 0 99.6 -0.2 126.7 -2.1 16.5 -1.1 30.1 -2.1 30.2 -2.2 0.1 -0.1 -29.3 -51.3 -65.3 -113.7 -277.7 -480.9 -327.3 -567 -327.3 -567.4 0 -0.4 242.8 -0.6 539.5 -0.6 l539.5 0 0 934.5 c0 514 -0.1 934.5 -0.3 934.5 -0.2 0 -13.9 -23.5 -30.5 -52.2z m-322.4 -736.1 c0.2 -178.9 0 -201.7 -1.3 -201.7 -1.3 0 -1.5 23 -1.5 202.1 0 161.2 0.3 202 1.3 201.7 0.9 -0.4 1.3 -41.9 1.5 -202.1z m227.2 103.8 l0 -68.5 -106.5 0 -106.5 0 0 68.5 0 68.5 106.5 0 106.5 0 0 -68.5z m-240 -176.5 l0 -129 -264.5 0 -264.5 0 0 129 0 129 264.5 0 264.5 0 0 -129z m240 -147.5 l0 -2.5 -384.5 0 -384.5 0 0 2.5 0 2.5 384.5 0 384.5 0 0 -2.5z m-302.7 -196 c61.1 -4.2 147.3 -10 191.5 -12.9 44.2 -3 80.6 -5.6 80.9 -6 1.2 -1.1 -9.4 -0.6 -83.7 4.4 -41 2.7 -115 7.6 -164.5 10.9 -85.9 5.8 -139.8 9.8 -142 10.6 -2.7 1 15.1 -0.1 117.8 -7z"/>
 </g>
 <g fill="#efefef">
  <path d="M949.4 1642.9 c-71.6 -124 -145.8 -252.5 -164.9 -285.6 l-34.8 -60.3 -295.4 0 -295.4 0 -4.9 -2.5 c-4.9 -2.5 -8.2 -6 -11.6 -12.5 -1.8 -3.4 -1.9 -12.6 -2.2 -299.1 l-0.2 -295.6 142.7 -0.6 c78.4 -0.4 259.8 -0.7 403.1 -0.7 l260.5 0 -0.6 -6.7 c-0.4 -3.8 -0.9 -11.5 -1.2 -17.3 -0.3 -5.8 -0.8 -12 -1.1 -13.8 l-0.5 -3.2 -9.4 0.6 -9.4 0.7 -0.5 -3.4 c-0.3 -1.9 -1 -7 -1.6 -11.3 -0.6 -4.4 -1.2 -8.1 -1.4 -8.4 -0.2 -0.2 -85.4 10.3 -189.3 23.2 -103.8 13 -196.9 24.5 -206.8 25.6 -30.2 3.5 -128.8 10 -130.2 8.7 -0.7 -0.7 -89.4 -154 -197.2 -340.7 l-196 -339.5 539.1 -0.3 c296.5 -0.1 539.3 -0.1 539.5 0.1 0.2 0.2 0.2 420.6 0.1 934.2 l-0.3 933.9 -130.1 -225.5z m-222.4 -561.9 c0 -178.9 -0.2 -202 -1.5 -202 -1.3 0 -1.5 23.1 -1.5 202 0 178.9 0.2 202 1.5 202 1.3 0 1.5 -23.1 1.5 -202z m227 187.5 l0 -6.5 -106.5 0 -106.5 0 0 6.5 0 6.5 106.5 0 106.5 0 0 -6.5z m-610 -3 l0 -6.5 -79.5 0 -79.5 0 0 6.5 0 6.5 79.5 0 79.5 0 0 -6.5z m185 0 l0 -6.5 -79.5 0 -79.5 0 0 6.5 0 6.5 79.5 0 79.5 0 0 -6.5z m185 0 l0 -6.5 -79.5 0 -79.5 0 0 6.5 0 6.5 79.5 0 79.5 0 0 -6.5z m240 -81.5 l0 -69 -106.7 0.2 -106.8 0.3 -0.3 68.8 -0.2 68.7 107 0 107 0 0 -69z m-610 61.5 l0 -6.5 -79.5 0 -79.5 0 0 6.5 0 6.5 79.5 0 79.5 0 0 -6.5z m185 0 l0 -6.5 -79.5 0 -79.5 0 0 6.5 0 6.5 79.5 0 79.5 0 0 -6.5z m185 0 l0 -6.5 -79.2 0.2 -79.3 0.3 -0.3 6.3 -0.3 6.2 79.6 0 79.5 0 0 -6.5z m-370 -20 l0 -6.5 -79.5 0 -79.5 0 0 6.5 0 6.5 79.5 0 79.5 0 0 -6.5z m185 0 l0 -6.5 -79.5 0 -79.5 0 0 5.8 c0 3.2 0.3 6.2 0.7 6.5 0.3 0.4 36.1 0.7 79.5 0.7 l78.8 0 0 -6.5z m185 0 l0 -6.5 -79.5 0 -79.5 0 0 5.8 c0 3.2 0.3 6.2 0.7 6.5 0.3 0.4 36.1 0.7 79.5 0.7 l78.8 0 0 -6.5z m0 -49 l0 -21.5 -264.5 0 -264.5 0 0 21.5 0 21.5 264.5 0 264.5 0 0 -21.5z m0.8 -168.3 l0.2 -129.2 -265.2 0.2 -265.3 0.3 -0.3 128 c-0.1 70.4 0 128.6 0.3 129.3 0.3 1 53.9 1.2 265.2 1 l264.8 -0.3 0.3 -129.3z m239.2 81.3 l0 -6.5 -106.5 0 -106.5 0 0 6.5 0 6.5 106.5 0 106.5 0 0 -6.5z m0 -20 l0 -6.5 -106.5 0 -106.5 0 0 6.5 0 6.5 106.5 0 106.5 0 0 -6.5z m0 -20 l0 -6.5 -106.5 0 -106.5 0 0 6.5 0 6.5 106.5 0 106.5 0 0 -6.5z m-0.5 -20.5 l0 -6.5 -106.2 -0.3 -106.3 -0.2 0 7 0 7 106.3 -0.2 106.2 -0.3 0 -6.5z m0 -19 l0 -6.5 -106.2 -0.3 -106.3 -0.2 0 7 0 7 106.3 -0.2 106.2 -0.3 0 -6.5z m0.5 -20.5 l0 -6.5 -106.5 0 -106.5 0 0 6.5 0 6.5 106.5 0 106.5 0 0 -6.5z m0 -20 l0 -6.5 -106.5 0 -106.5 0 0 6.5 0 6.5 106.5 0 106.5 0 0 -6.5z m0 -20 l0 -6.5 -106.5 0 -106.5 0 0 6.5 0 6.5 106.5 0 106.5 0 0 -6.5z m0 -50 l0 -21.5 -106.5 0 -106.5 0 0 21.5 0 21.5 106.5 0 106.5 0 0 -21.5z m0 -38.5 l0 -3 -384.5 0 c-340.9 0 -384.6 0.2 -385.1 1.5 -0.4 0.8 -0.4 2.2 0 3 0.5 1.3 44.2 1.5 385.1 1.5 l384.5 0 0 -3z m0 -80.5 l0 -54.5 -384.5 0 -384.5 0 0 54.5 0 54.5 384.5 0 384.5 0 0 -54.5z"/>
 </g>
 <g fill="#ffffff">
  <path d="M1048.3 1813.7 c-17.2 -29.8 -91.3 -158.1 -164.6 -285.2 l-133.4 -231 115.7 -0.5 115.6 -0.5 4.1 -2.7 c4.9 -3.2 9 -8.4 10.9 -13.5 1.1 -3.1 1.3 -54.9 1.4 -298.5 l0 -294.8 -25.5 0 -25.4 0 -0.5 -3.2 c-0.5 -3.1 -2.6 -34.3 -2.6 -38.2 0 -1.6 -0.9 -1.8 -10 -1.4 -8.3 0.2 -10 0.1 -10.1 -1.2 0 -0.8 -0.6 -5.5 -1.2 -10.5 -1.2 -9 -1.2 -9 -4.2 -9.3 -1.6 -0.1 -87.8 10.3 -191.5 23.3 -103.7 13 -196.6 24.2 -206.5 25 -30.4 2.4 -126.6 8.7 -126.9 8.4 -0.1 -0.2 -35.3 -61.1 -78.2 -135.4 -42.8 -74.2 -131 -227 -195.9 -339.5 l-118.1 -204.5 539 -0.3 c296.4 -0.1 539.1 -0.1 539.3 0.1 0.2 0.2 0.2 420.5 0.1 934 l-0.3 933.6 -31.2 -54.2z"/>
 </g>
</svg>