<?xml version="1.0" encoding="utf-8"?>
<!DOCTYPE svg PUBLIC "-//W3C//DTD SVG 20010904//EN" "http://www.w3.org/TR/2001/REC-SVG-20010904/DTD/svg10.dtd">
<svg version="1.0" xmlns="http://www.w3.org/2000/svg" width="1080px" height="1920px" viewBox="0 0 1080 1920" preserveAspectRatio="xMidYMid meet">
 <g fill="#000001">
  <path d="M0 960 l0 -960 540 0 540 0 0 960 0 960 -540 0 -540 0 0 -960z"/>
 </g>
 <g fill="#2d2d2e">
  <path d="M0 960 c0 -771.4 0.2 -960 1.3 -960 0.7 0 17.3 27.8 36.9 61.8 19.6 33.9 82.4 142.7 139.5 241.7 57.2 99 129.5 224.3 160.8 278.5 31.2 54.2 57 98.7 57.1 98.9 0.3 0.4 81.8 -4.8 125.9 -8 7.7 -0.5 100.2 -11.8 205.5 -24.9 105.3 -13.2 192.3 -24 193.3 -24 1.1 0 1.7 0.8 1.7 2.2 0 1.2 0.5 6.1 1.1 10.9 l1.1 8.8 9.8 -0.6 9.7 -0.6 0.6 6.4 c0.4 3.5 0.9 10.9 1.2 16.4 0.3 5.5 0.8 11.9 1.1 14.2 l0.5 4.3 25.5 0 25.4 0 0 296.3 c0 285.6 -0.1 296.3 -1.9 300.2 -1 2.2 -3.5 5.7 -5.6 7.9 -7.6 7.6 2.1 7 -124.6 7.6 l-113.6 0.5 100.4 174 c55.2 95.7 129 223.4 163.9 283.8 l63.4 109.9 0 26.9 0 26.9 -540 0 -540 0 0 -960z"/>
 </g>
 <g fill="#5b5b5b">
  <path d="M156.9 1296.4 c-5.3 -1.6 -11.7 -7.4 -14.5 -13.2 -1.7 -3.3 -2 -7.4 -2.5 -40.2 -0.4 -20.1 -1.4 -45.3 -2.3 -56 -0.9 -10.7 -13.9 -118 -29 -238.5 -15.1 -120.4 -27.3 -219.1 -27.2 -219.3 0.2 -0.1 5.9 -0.9 12.7 -1.8 6.8 -0.9 12.5 -1.7 12.5 -1.8 0.1 0 -0.3 -5.5 -0.7 -12 -0.5 -6.6 -0.7 -12.1 -0.5 -12.3 0.2 -0.3 8.1 -0.9 17.5 -1.6 l17.1 -1.1 0 -6.3 0 -6.3 93.6 0 c89.2 0 95.3 -0.1 131.2 -2.5 20.7 -1.4 68 -4.5 105 -7 l67.3 -4.5 191.6 -24 c136.2 -17.1 191.9 -23.7 192.4 -22.9 0.3 0.6 0.9 4.1 1.3 7.8 0.4 3.6 0.9 8.1 1.3 9.9 l0.5 3.3 9.9 -0.7 9.9 -0.7 0.1 3.9 c0.1 2.2 0.6 11.3 1.2 20.4 l1.2 16.5 25.8 0.3 25.7 0.2 0 295.8 c0 295.2 0 295.7 -2.1 300.2 -2.5 5.5 -7.1 10.5 -12.4 13.3 l-4 2.2 -409 0.2 c-352.1 0.1 -409.6 0 -413.6 -1.3z"/>
 </g>
 <g fill="#9e9e9e">
  <path d="M154.5 1295.1 c-4.3 -1.9 -9.3 -7 -12.2 -12.4 -1.6 -2.8 -1.9 -7.5 -2.4 -41.2 -0.4 -20.9 -1.2 -45 -1.8 -53.5 -0.7 -8.5 -13.6 -114.4 -28.7 -235.3 -15.1 -120.8 -27.4 -220.5 -27.4 -221.6 0 -1.6 1.3 -2 9.8 -3 5.3 -0.7 11 -1.4 12.5 -1.7 l2.9 -0.6 -0.6 -6.6 c-0.3 -3.7 -0.7 -9.2 -0.8 -12.2 l-0.3 -5.5 7.5 -0.7 c4.1 -0.4 11.9 -1 17.3 -1.3 l9.7 -0.7 0 -6.4 0 -6.4 95.9 0 96 0 97.8 -6.5 c53.8 -3.6 102.5 -7 108.3 -7.6 5.8 -0.5 94.2 -11.5 196.5 -24.3 102.3 -12.9 186.1 -23.3 186.2 -23.2 0.2 0.2 0.8 4.1 1.3 8.7 1.9 14.7 0.6 13.3 11.9 12.6 l9.8 -0.7 1.2 20.3 c0.7 11.1 1.5 20.5 1.8 21 0.2 0.4 11.9 0.7 25.9 0.7 l25.4 0 -0.2 296.3 -0.3 296.2 -2.7 4.6 c-3.1 5.3 -7.7 9.6 -12.5 11.6 -2.7 1.1 -71.5 1.3 -413.5 1.3 -394.7 0 -410.5 -0.1 -414.3 -1.9z m571.5 -214.6 c0 -133.7 -0.3 -201.5 -1 -201.5 -0.7 0 -1 67.8 -1 201.5 0 133.7 0.3 201.5 1 201.5 0.7 0 1 -67.8 1 -201.5z m228 104 l0 -68.5 -106.5 0 -106.5 0 0 68.5 0 68.5 106.5 0 106.5 0 0 -68.5z m-240 -176 l0 -128.5 -264.5 0 -264.5 0 0 128.5 0 128.5 264.5 0 264.5 0 0 -128.5z m240 -147.5 c0 -2 -0.7 -2 -384.5 -2 -383.8 0 -384.5 0 -384.5 2 0 2 0.7 2 384.5 2 383.8 0 384.5 0 384.5 -2z"/>
  <path d="M410 1009.5 l0 -82.5 22.5 0 22.5 0 0 64.5 0 64.5 32 0 32 0 0 18 0 18 -54.5 0 -54.5 0 0 -82.5z"/>
  <path d="M580.5 1090.8 c-0.3 -0.7 -12.2 -37.3 -26.5 -81.3 -14.3 -44 -26.3 -80.6 -26.5 -81.3 -0.4 -1 4.7 -1.2 24.7 -1 l25.1 0.3 11.9 44 c6.5 24.2 13.4 51.2 15.2 60 1.9 8.8 3.5 14.9 3.5 13.5 0.3 -7 6.3 -32 17.3 -72.7 l12.3 -45.3 24.9 0 c23.2 0 24.8 0.1 24.4 1.8 -0.3 0.9 -12.4 38 -26.9 82.4 l-26.4 80.8 -26.3 0 c-20.1 0 -26.4 -0.3 -26.7 -1.2z"/>
 </g>
 <g fill="#bfbfbf">
  <path d="M153.8 1294.5 c-4.7 -2.5 -8 -6.1 -11.4 -12.5 -1.7 -3.2 -1.9 -7.3 -2.5 -44.5 -0.4 -24.7 -1.4 -48 -2.3 -58.5 -0.9 -9.6 -13.8 -114.4 -28.6 -232.9 -14.8 -118.5 -26.7 -215.7 -26.5 -216.1 0.2 -0.4 5.9 -1.3 12.6 -2 l12.1 -1.3 -0.7 -12.7 -0.7 -12.7 12.8 -0.7 c7.1 -0.4 14.8 -0.9 17.2 -1.2 l4.2 -0.6 0 -5.9 0 -5.8 97.8 -0.3 97.7 -0.4 97.5 -6.7 c53.6 -3.7 104.4 -7.4 112.9 -8.2 8.5 -0.8 17.9 -1.5 21 -1.5 4 0 5.2 -0.3 4.1 -1 -1 -0.6 1.1 -0.8 6.5 -0.6 4.4 0.2 6 0.1 3.5 -0.2 -2.9 -0.3 55.4 -8 167.5 -22.1 l172 -21.6 0.7 3.5 c0.3 1.9 0.9 6.5 1.3 10.3 0.6 6.1 0.5 6.7 -1.1 6.8 -1.3 0 -1.2 0.3 0.6 0.8 1.4 0.4 6.6 0.4 11.5 0.1 5 -0.3 9.2 -0.5 9.4 -0.3 0.4 0.3 2.9 31.8 3 38.6 l0.1 2.7 26 0 26 0 0 293.6 c0 203.2 -0.3 294.8 -1.1 297.7 -1.6 6.3 -7.1 13.3 -12.9 16.2 l-4.9 2.5 -410.3 0 -410.3 -0.1 -4.7 -2.4z m572.2 -213.5 c0 -134 -0.3 -202 -1 -202 -0.7 0 -1 68 -1 202 0 134 0.3 202 1 202 0.7 0 1 -68 1 -202z m228 103.5 l0 -68.5 -106.5 0 -106.5 0 0 68.5 0 68.5 106.5 0 106.5 0 0 -68.5z m-240 -176.5 l0 -129 -264.5 0 -264.5 0 0 129 0 129 264.5 0 264.5 0 0 -129z m240 -147.5 l0 -2.5 -384.5 0 -384.5 0 0 2.5 0 2.5 384.5 0 384.5 0 0 -2.5z m-355.2 -193.2 c-1.5 -0.2 -4.2 -0.2 -6 0 -1.8 0.2 -0.6 0.4 2.7 0.4 3.3 0 4.8 -0.2 3.3 -0.4z m15 -1 c-1.5 -0.2 -4.2 -0.2 -6 0 -1.8 0.2 -0.6 0.4 2.7 0.4 3.3 0 4.8 -0.2 3.3 -0.4z m15 -1 c-1.5 -0.2 -4.2 -0.2 -6 0 -1.8 0.2 -0.6 0.4 2.7 0.4 3.3 0 4.8 -0.2 3.3 -0.4z m15 -1 c-1.5 -0.2 -4.2 -0.2 -6 0 -1.8 0.2 -0.6 0.4 2.7 0.4 3.3 0 4.8 -0.2 3.3 -0.4z m15 -1 c-1.5 -0.2 -4.2 -0.2 -6 0 -1.8 0.2 -0.6 0.4 2.7 0.4 3.3 0 4.8 -0.2 3.3 -0.4z m15 -1 c-1.5 -0.2 -4.2 -0.2 -6 0 -1.8 0.2 -0.6 0.4 2.7 0.4 3.3 0 4.8 -0.2 3.3 -0.4z m14 -1 c-1.6 -0.2 -4 -0.2 -5.5 0 -1.6 0.2 -0.3 0.4 2.7 0.4 3 0 4.3 -0.2 2.8 -0.4z m15 -1 c-1.6 -0.2 -4 -0.2 -5.5 0 -1.6 0.2 -0.3 0.4 2.7 0.4 3 0 4.3 -0.2 2.8 -0.4z m15 -1 c-1.6 -0.2 -4 -0.2 -5.5 0 -1.6 0.2 -0.3 0.4 2.7 0.4 3 0 4.3 -0.2 2.8 -0.4z m15 -1 c-1.6 -0.2 -4 -0.2 -5.5 0 -1.6 0.2 -0.3 0.4 2.7 0.4 3 0 4.3 -0.2 2.8 -0.4z m15 -1 c-1.6 -0.2 -4 -0.2 -5.5 0 -1.6 0.2 -0.3 0.4 2.7 0.4 3 0 4.3 -0.2 2.8 -0.4z m13.5 -1 c-1.3 -0.2 -3.3 -0.2 -4.5 0 -1.3 0.2 -0.3 0.4 2.2 0.4 2.5 0 3.5 -0.2 2.3 -0.4z m14.5 -1 c-1.6 -0.2 -4 -0.2 -5.5 0 -1.6 0.2 -0.3 0.4 2.7 0.4 3 0 4.3 -0.2 2.8 -0.4z m15 -1 c-1.6 -0.2 -4 -0.2 -5.5 0 -1.6 0.2 -0.3 0.4 2.7 0.4 3 0 4.3 -0.2 2.8 -0.4z m15.5 -1 c-1.3 -0.2 -3.5 -0.2 -5 0 -1.6 0.2 -0.5 0.4 2.2 0.4 2.8 0 4 -0.2 2.8 -0.4z m15 -1 c-1.3 -0.2 -3.5 -0.2 -5 0 -1.6 0.2 -0.5 0.4 2.2 0.4 2.8 0 4 -0.2 2.8 -0.4z m15 -1 c-1.3 -0.2 -3.5 -0.2 -5 0 -1.6 0.2 -0.5 0.4 2.2 0.4 2.8 0 4 -0.2 2.8 -0.4z m15 -1 c-1.3 -0.2 -3.5 -0.2 -5 0 -1.6 0.2 -0.5 0.4 2.2 0.4 2.8 0 4 -0.2 2.8 -0.4z m15.5 -1 c-1.6 -0.2 -4 -0.2 -5.5 0 -1.6 0.2 -0.3 0.4 2.7 0.4 3 0 4.3 -0.2 2.8 -0.4z m15 -1 c-1.6 -0.2 -4 -0.2 -5.5 0 -1.6 0.2 -0.3 0.4 2.7 0.4 3 0 4.3 -0.2 2.8 -0.4z m15 -1 c-1.6 -0.2 -4 -0.2 -5.5 0 -1.6 0.2 -0.3 0.4 2.7 0.4 3 0 4.3 -0.2 2.8 -0.4z m15 -1 c-1.6 -0.2 -4 -0.2 -5.5 0 -1.6 0.2 -0.3 0.4 2.7 0.4 3 0 4.3 -0.2 2.8 -0.4z"/>
 </g>
 <g fill="#cecece">
  <path d="M154.3 1294.5 c-5.4 -2.7 -9.3 -7 -12.1 -13.3 -1.4 -3.2 -1.7 -9.4 -2.3 -44.7 -0.5 -29 -1.3 -48 -2.8 -65 -2.6 -29.8 -29.3 -427.1 -30.5 -455.7 -0.6 -12.5 -0.5 -13.7 1.1 -14.2 1 -0.2 7.4 -0.7 14.3 -1.1 18.9 -0.9 18 -0.5 18 -7.5 l0 -5.9 98.8 -0.3 98.7 -0.4 97.5 -6.7 c53.6 -3.7 99.8 -6.9 102.5 -7.2 4.8 -0.5 148.7 -10.3 302 -20.5 40.7 -2.7 80.3 -5.2 88 -5.6 7.7 -0.3 14.3 -0.8 14.7 -1 0.8 -0.5 1.5 5 2.3 17.6 0.3 5.2 0.8 12.8 1.1 16.8 l0.6 7.2 25.9 0 25.9 0 -0.2 295.8 c-0.3 288.3 -0.3 295.8 -2.2 299.2 -3.5 6.5 -6.8 9.9 -11.9 12.5 l-5.1 2.5 -409.6 0 -409.6 0 -5.1 -2.5z m572.5 -213.8 c0.2 -178.9 0 -201.7 -1.3 -201.7 -1.3 0 -1.5 23 -1.5 202.1 0 161.2 0.3 202 1.3 201.7 0.9 -0.4 1.3 -41.9 1.5 -202.1z m227.2 103.8 l0 -68.5 -107 0 -107 0 0 68.5 0 68.5 107 0 107 0 0 -68.5z m-239.2 -176.2 l-0.3 -128.8 -264.7 -0.3 -264.8 -0.2 0 129 0 129 265 0 265 0 -0.2 -128.7z m239.2 -147.8 l0 -2.5 -384.5 0 -384.5 0 0 2.5 0 2.5 384.5 0 384.5 0 0 -2.5z"/>
 </g>
 <g fill="#d9d9d9">
  <path d="M154.3 1294.5 c-2.8 -1.5 -6.3 -4.2 -7.8 -6 -5.9 -7.8 -5.8 -7.5 -6.6 -53 -0.4 -23.1 -1.2 -47.4 -1.8 -54 -0.9 -10.3 -24.2 -355.6 -30.2 -447.4 -1.1 -17.2 -1.7 -31.6 -1.4 -31.9 0.3 -0.3 7.9 -1.1 16.8 -1.8 8.9 -0.7 16.3 -1.2 16.5 -1.3 0.1 -0.1 0.2 -2.8 0.2 -6.1 l0 -5.9 99.3 -0.4 99.2 -0.3 126.5 -8.7 c340.2 -23.3 476.7 -32.3 477.6 -31.5 0.5 0.6 3.1 31.1 3.4 39.6 0 0.9 5.9 1.2 26 1.2 l26 0 -0.2 295.8 c-0.3 288.3 -0.3 295.8 -2.2 299.2 -3.5 6.5 -6.8 9.9 -11.9 12.5 l-5.1 2.5 -409.6 0 -409.6 0 -5.1 -2.5z m572.7 -213.5 c0 -178.9 -0.2 -202 -1.5 -202 -1.3 0 -1.5 23.1 -1.5 202 0 178.9 0.2 202 1.5 202 1.3 0 1.5 -23.1 1.5 -202z m226 187 l0 -6 -106 0 -106 0 0 6 0 6 106 0 106 0 0 -6z m-610 -2.5 l0 -6.5 -79 0 -79 0 0 6.5 0 6.5 79 0 79 0 0 -6.5z m186 0 l0 -6.5 -79 0 -79 0 0 6.5 0 6.5 79 0 79 0 0 -6.5z m185 0 l0 -6.5 -79 0 -79 0 0 6.5 0 6.5 79 0 79 0 0 -6.5z m240 -81.5 l0 -69 -106.7 0.2 -106.8 0.3 -0.3 68.8 -0.2 68.7 107 0 107 0 0 -69z m-611 62 l0 -6 -79 0 -79 0 0 6 0 6 79 0 79 0 0 -6z m186 0 l0 -6 -79 0 -79 0 0 6 0 6 79 0 79 0 0 -6z m185 0 l0 -6 -79 0 -79 0 0 6 0 6 79 0 79 0 0 -6z m-371 -21 l0 -6 -79 0 -79 0 0 6 0 6 79 0 79 0 0 -6z m186 0 l0 -6 -79 0 -79 0 0 6 0 6 79 0 79 0 0 -6z m185 0 l0 -6 -79 0 -79 0 0 6 0 6 79 0 79 0 0 -6z m0 -48.5 l0 -21.5 -264.5 0 -264.5 0 0 21.5 0 21.5 264.5 0 264.5 0 0 -21.5z m0.5 -168 l0 -129 -264.7 -0.3 -264.8 -0.2 0 129.5 0 129.5 264.8 -0.2 264.7 -0.3 0 -129z m238.5 81.5 l0 -6 -106 0 -106 0 0 6 0 6 106 0 106 0 0 -6z m0 -20.5 l0 -6.5 -106 0 -106 0 0 6.5 0 6.5 106 0 106 0 0 -6.5z m0 -20 l0 -6.5 -106 0 -106 0 0 6.5 0 6.5 106 0 106 0 0 -6.5z m0 -20.5 l0 -6 -106 0 -106 0 0 6 0 6 106 0 106 0 0 -6z m0 -19 l0 -6 -106 0 -106 0 0 6 0 6 106 0 106 0 0 -6z m0 -20.5 l0 -6.5 -106 0 -106 0 0 6.5 0 6.5 106 0 106 0 0 -6.5z m0 -20 l0 -6.5 -106 0 -106 0 0 6.5 0 6.5 106 0 106 0 0 -6.5z m0 -20.5 l0 -6 -106 0 -106 0 0 6 0 6 106 0 106 0 0 -6z m0 -49 l0 -21 -106 0 -106 0 0 21 0 21 106 0 106 0 0 -21z m0.8 -39.2 l0.3 -2.8 -384.5 0 -384.6 0 0 3 0 3 384.3 -0.2 384.2 -0.3 0.3 -2.7z m-0.8 -80.3 l0 -54.5 -384 0 -384 0 0 54.5 0 54.5 384 0 384 0 0 -54.5z"/>
 </g>
 <g fill="#efefef">
  <path d="M155.5 1295.1 c-4.6 -2.1 -11 -8.7 -13.3 -14 -1.5 -3.3 -1.7 -26.7 -2 -287.6 -0.2 -156.2 -0.1 -289.1 0.3 -295.2 l0.7 -11.3 428.4 0 428.4 0 -0.2 295.3 c-0.3 272.1 -0.4 295.5 -2 298.8 -2.4 5.5 -8.7 11.9 -13.6 14 -4.2 1.8 -16.8 1.9 -413.5 1.9 -393.7 0 -409.4 -0.1 -413.2 -1.9z m571.5 -214.1 c0 -178.9 -0.2 -202 -1.5 -202 -1.3 0 -1.5 23.1 -1.5 202 0 178.9 0.2 202 1.5 202 1.3 0 1.5 -23.1 1.5 -202z m226.8 187.3 l-0.3 -6.8 -106.2 -0.3 -106.3 -0.2 0 7 0 7 106.5 0 106.6 0 -0.3 -6.7z m-609.8 -2.8 l0 -6.5 -79.5 0 -79.5 0 0 6.5 0 6.5 79.5 0 79.5 0 0 -6.5z m185 0 l0 -6.5 -79.5 0 -79.5 0 0 6.5 0 6.5 79.5 0 79.5 0 0 -6.5z m185 0 l0 -6.5 -79.5 0 -79.5 0 0 6.5 0 6.5 79.5 0 79.5 0 0 -6.5z m239.8 -81.3 l0.2 -69.2 -106.7 0.2 -106.8 0.3 -0.3 68 c-0.1 37.4 0 68.6 0.3 69.3 0.3 1 22.2 1.2 106.7 1 l106.3 -0.3 0.3 -69.3z m-609.8 61.3 l0 -6.5 -79.5 0 -79.5 0 0 6.5 0 6.5 79.5 0 79.5 0 0 -6.5z m185 0 l0 -6.5 -79.5 0 -79.5 0 0 6.5 0 6.5 79.5 0 79.5 0 0 -6.5z m185 0 l0 -6.5 -79.5 0 -79.5 0 0 6.5 0 6.5 79.5 0 79.5 0 0 -6.5z m-370.2 -20.2 l-0.3 -6.8 -79.2 -0.3 -79.3 -0.2 0 7 0 7 79.5 0 79.6 0 -0.3 -6.7z m185.2 -0.3 l0 -7 -79.2 0.2 -79.3 0.3 -0.3 6.8 -0.3 6.7 79.6 0 79.5 0 0 -7z m185 0 l0 -7 -79.2 0.2 -79.3 0.3 -0.3 6.8 -0.3 6.7 79.6 0 79.5 0 0 -7z m0 -48.5 l0 -21.5 -264.5 0 -264.5 0 0 21.5 0 21.5 264.5 0 264.5 0 0 -21.5z m0.8 -168.3 l0.2 -129.2 -265.2 0.2 -265.3 0.3 -0.3 128 c-0.1 70.4 0 128.6 0.3 129.3 0.3 1 53.9 1.2 265.2 1 l264.8 -0.3 0.3 -129.3z m239.2 81.8 l0 -7 -106.5 0 -106.5 0 0 7 0 7 106.5 0 106.5 0 0 -7z m0 -20.5 l0 -6.5 -106.5 0 -106.5 0 0 6.5 0 6.5 106.5 0 106.5 0 0 -6.5z m0 -20 l0 -6.5 -106.5 0 -106.5 0 0 6.5 0 6.5 106.5 0 106.5 0 0 -6.5z m0 -20.5 l0 -7 -106.5 0 -106.5 0 0 7 0 7 106.5 0 106.5 0 0 -7z m0 -19 l0 -7 -106.5 0 -106.5 0 0 7 0 7 106.5 0 106.5 0 0 -7z m0 -20.5 l0 -6.5 -106.5 0 -106.5 0 0 6.5 0 6.5 106.5 0 106.5 0 0 -6.5z m0 -20 l0 -6.5 -106.5 0 -106.5 0 0 6.5 0 6.5 106.5 0 106.5 0 0 -6.5z m0 -20.5 l0 -7 -106.5 0 -106.5 0 0 7 0 7 106.5 0 106.5 0 0 -7z m0 -49.5 l0 -21.5 -106.5 0 -106.5 0 0 21.5 0 21.5 106.5 0 106.5 0 0 -21.5z m0 -38.5 l0 -3 -385 0 -385 0 0 2.3 c0 1.3 0.3 2.7 0.7 3 0.3 0.4 173.6 0.7 385 0.7 l384.3 0 0 -3z m0 -80.5 l0 -54.5 -384.5 0 -384.5 0 0 54.5 0 54.5 384.5 0 384.5 0 0 -54.5z"/>
 </g>
</svg>